<?xml version="1.0" encoding="utf-8"?>
<!-- Generator: Adobe Illustrator 19.0.0, SVG Export Plug-In . SVG Version: 6.00 Build 0)  -->
<svg version="1.1" id="Capa_1" xmlns="http://www.w3.org/2000/svg" xmlns:xlink="http://www.w3.org/1999/xlink" x="0px" y="0px"
	 viewBox="0 0 78.8 32" style="enable-background:new 0 0 78.8 32;" xml:space="preserve">
<style type="text/css">
	.st0{fill:#FFFFFF;}
</style>
<g id="XMLID_80_">
	<path id="XMLID_124_" class="st0" d="M8.3,4.1h-3v3.1H8v1.2H5.3V13H3.4V2.9h4.9V4.1z"/>
	<path id="XMLID_121_" class="st0" d="M14.7,12.6c-0.7,0.3-1.5,0.5-2.6,0.5c-2,0-3-0.7-3-2.2c0-0.9,0.5-1.6,1.4-2.1
		c0.6-0.3,1.5-0.5,2.6-0.6V7.9c0-0.8-0.5-1.2-1.4-1.2c-0.6,0-1.2,0.1-1.8,0.4L9.6,6.2c0.8-0.4,1.6-0.6,2.5-0.6
		c1.8,0,2.7,0.8,2.7,2.5V12.6z M13.2,12V9c-0.8,0.1-1.4,0.2-1.7,0.4c-0.5,0.3-0.8,0.8-0.8,1.4c0,0.9,0.5,1.3,1.5,1.3
		C12.6,12.2,12.9,12.1,13.2,12z"/>
	<path id="XMLID_119_" class="st0" d="M20.8,12.6c-0.4,0.3-0.9,0.5-1.7,0.5c-1,0-1.7-0.4-2.2-1.2c-0.4-0.7-0.6-1.5-0.6-2.6
		c0-1,0.2-1.9,0.7-2.5c0.5-0.8,1.3-1.2,2.2-1.2c0.7,0,1.3,0.2,1.7,0.5L20.4,7c-0.3-0.2-0.6-0.3-1-0.3c-1.1,0-1.6,0.9-1.6,2.6
		c0,0.7,0.1,1.2,0.3,1.7c0.3,0.6,0.7,0.9,1.3,0.9c0.4,0,0.7-0.1,1-0.3L20.8,12.6z"/>
	<path id="XMLID_117_" class="st0" d="M27.7,12.6c-0.7,0.4-1.7,0.6-2.8,0.6c-1.9,0-2.8-0.8-2.8-2.5v-5h1.7v5.1
		c0,0.8,0.4,1.2,1.2,1.2c0.4,0,0.8-0.1,1.1-0.2v-6h1.7V12.6z"/>
	<path id="XMLID_115_" class="st0" d="M31.2,13h-1.7V2.8h1.7V13z"/>
	<path id="XMLID_113_" class="st0" d="M36.2,12.9c-0.2,0.1-0.5,0.1-0.8,0.1c-0.6,0-1.1-0.2-1.5-0.5c-0.4-0.3-0.5-0.8-0.5-1.4V6.8
		h-0.8V5.7h0.8V3.3L35,2.9v2.9h1.2v1.1H35V11c0,0.6,0.3,0.9,0.8,0.9c0.1,0,0.2,0,0.4-0.1V12.9z"/>
	<path id="XMLID_110_" class="st0" d="M42.8,12.6c-0.7,0.3-1.5,0.5-2.6,0.5c-2,0-3-0.7-3-2.2c0-0.9,0.5-1.6,1.4-2.1
		c0.6-0.3,1.5-0.5,2.6-0.6V7.9c0-0.8-0.5-1.2-1.4-1.2c-0.6,0-1.2,0.1-1.8,0.4l-0.4-0.9c0.8-0.4,1.6-0.6,2.5-0.6
		c1.8,0,2.7,0.8,2.7,2.5V12.6z M41.3,12V9c-0.8,0.1-1.4,0.2-1.7,0.4c-0.5,0.3-0.8,0.8-0.8,1.4c0,0.9,0.5,1.3,1.5,1.3
		C40.7,12.2,41,12.1,41.3,12z"/>
	<path id="XMLID_107_" class="st0" d="M50.2,12.6c-0.6,0.4-1.5,0.5-2.5,0.5c-1.1,0-2-0.3-2.5-1c-0.6-0.6-0.8-1.5-0.8-2.7
		c0-1.1,0.3-2,0.8-2.6c0.6-0.8,1.4-1.1,2.4-1.1c0.4,0,0.8,0,1.1,0.1v-3h1.7V12.6z M48.5,11.9V6.6c-0.2-0.1-0.5-0.1-0.7-0.1
		c-1.3,0-1.9,0.9-1.9,2.8c0,1.8,0.6,2.7,1.8,2.7C48.1,12,48.3,12,48.5,11.9z"/>
	<path id="XMLID_104_" class="st0" d="M9.1,28.7c-0.6,0.4-1.5,0.5-2.5,0.5c-1.1,0-2-0.3-2.5-1c-0.6-0.6-0.8-1.5-0.8-2.7
		c0-1.1,0.3-2,0.8-2.6c0.6-0.8,1.4-1.1,2.4-1.1c0.4,0,0.8,0,1.1,0.1v-3h1.7V28.7z M7.5,28v-5.2c-0.2-0.1-0.5-0.1-0.7-0.1
		c-1.3,0-1.9,0.9-1.9,2.8c0,1.8,0.6,2.7,1.8,2.7C7,28.2,7.3,28.1,7.5,28z"/>
	<path id="XMLID_101_" class="st0" d="M16.6,25.5l-4.4,0.6c0.1,1.4,0.8,2,2,2c0.7,0,1.3-0.1,1.8-0.4l0.4,1c-0.6,0.3-1.4,0.5-2.4,0.5
		c-1.1,0-2-0.4-2.6-1.1c-0.5-0.7-0.8-1.6-0.8-2.7c0-1.1,0.2-2,0.7-2.6c0.5-0.8,1.3-1.1,2.4-1.1c1.1,0,1.8,0.4,2.3,1.1
		C16.5,23.5,16.7,24.4,16.6,25.5z M15.1,24.8c0-1.4-0.5-2.1-1.4-2.1c-0.6,0-1,0.3-1.3,0.9c-0.2,0.4-0.3,1-0.3,1.7L15.1,24.8z"/>
	<path id="XMLID_99_" class="st0" d="M26.6,29.1h-4.9V19h4.9v1.3h-3.1v3.1h2.7v1.2h-2.7v3.3h3.1V29.1z"/>
	<path id="XMLID_97_" class="st0" d="M32.2,28.8c-0.4,0.3-0.9,0.5-1.7,0.5c-1,0-1.7-0.4-2.2-1.2c-0.4-0.7-0.6-1.5-0.6-2.6
		c0-1,0.2-1.9,0.7-2.5c0.5-0.8,1.3-1.2,2.2-1.2c0.7,0,1.3,0.2,1.7,0.5l-0.4,0.9c-0.3-0.2-0.6-0.3-1-0.3c-1.1,0-1.6,0.9-1.6,2.6
		c0,0.7,0.1,1.2,0.3,1.7c0.3,0.6,0.7,0.9,1.3,0.9c0.4,0,0.7-0.1,1-0.3L32.2,28.8z"/>
	<path id="XMLID_94_" class="st0" d="M39.2,25.5c0,1.1-0.2,1.9-0.7,2.6c-0.5,0.8-1.3,1.2-2.3,1.2c-1,0-1.8-0.4-2.3-1.2
		c-0.5-0.7-0.7-1.5-0.7-2.6c0-1.1,0.2-1.9,0.7-2.6c0.5-0.8,1.3-1.2,2.3-1.2c1,0,1.8,0.4,2.3,1.2C39,23.6,39.2,24.5,39.2,25.5z
		 M37.6,25.5c0-1.8-0.5-2.7-1.4-2.7c-0.9,0-1.4,0.9-1.4,2.7c0,1.8,0.5,2.6,1.4,2.6C37.2,28.2,37.6,27.3,37.6,25.5z"/>
	<path id="XMLID_92_" class="st0" d="M46.5,29.2h-1.7V24c0-0.8-0.4-1.2-1.3-1.2c-0.4,0-0.8,0.1-1.1,0.2v6.2h-1.7v-6.9
		c0.7-0.4,1.7-0.5,2.8-0.5c0.8,0,1.5,0.2,2,0.5c0.6,0.4,0.9,1,0.9,1.8V29.2z"/>
	<path id="XMLID_89_" class="st0" d="M54,25.5c0,1.1-0.2,1.9-0.7,2.6c-0.5,0.8-1.3,1.2-2.3,1.2c-1,0-1.8-0.4-2.3-1.2
		c-0.5-0.7-0.7-1.5-0.7-2.6c0-1.1,0.2-1.9,0.7-2.6c0.5-0.8,1.3-1.2,2.3-1.2c1,0,1.8,0.4,2.3,1.2C53.7,23.6,54,24.5,54,25.5z
		 M52.3,25.5c0-1.8-0.5-2.7-1.4-2.7c-0.9,0-1.4,0.9-1.4,2.7c0,1.8,0.5,2.6,1.4,2.6C51.9,28.2,52.3,27.3,52.3,25.5z"/>
	<path id="XMLID_87_" class="st0" d="M65.3,29.2h-1.6V24c0-0.8-0.4-1.2-1.2-1.2c-0.5,0-0.9,0.2-1.2,0.5v5.8h-1.6V24
		c0-0.8-0.5-1.2-1.4-1.2c-0.4,0-0.8,0.1-1.1,0.2v6.1h-1.6v-6.9c0.7-0.4,1.6-0.5,2.7-0.5c1,0,1.8,0.3,2.3,0.8
		c0.6-0.5,1.4-0.8,2.3-0.8c0.7,0,1.3,0.2,1.8,0.6c0.5,0.4,0.7,0.9,0.7,1.6V29.2z"/>
	<path id="XMLID_84_" class="st0" d="M69.6,19.3L68,21.1h-0.9l0.9-1.9c0.3-0.2,0.6-0.2,0.9-0.2C69.3,19,69.5,19.1,69.6,19.3z
		 M68.7,29.2h-1.7v-7.3h1.7V29.2z"/>
	<path id="XMLID_81_" class="st0" d="M75.8,28.8c-0.7,0.4-1.5,0.5-2.6,0.5c-2,0-3-0.7-3-2.2c0-0.9,0.5-1.6,1.4-2.1
		c0.6-0.3,1.5-0.5,2.6-0.6V24c0-0.8-0.5-1.2-1.4-1.2c-0.6,0-1.2,0.1-1.8,0.4l-0.4-0.9c0.8-0.4,1.6-0.6,2.5-0.6
		c1.8,0,2.7,0.8,2.7,2.5V28.8z M74.2,28.2v-3c-0.8,0.1-1.4,0.2-1.7,0.4c-0.5,0.3-0.8,0.8-0.8,1.4c0,0.9,0.5,1.3,1.5,1.3
		C73.6,28.4,74,28.3,74.2,28.2z"/>
</g>
</svg>
